<?xml version="1.0" standalone="no"?>
<!DOCTYPE svg PUBLIC "-//W3C//DTD SVG 20010904//EN"
 "http://www.w3.org/TR/2001/REC-SVG-20010904/DTD/svg10.dtd">
<svg version="1.0" xmlns="http://www.w3.org/2000/svg"
 width="182.000000pt" height="182.000000pt" viewBox="0 0 182.000000 182.000000"
 preserveAspectRatio="xMidYMid meet">
<metadata>
Created by potrace 1.16, written by Peter Selinger 2001-2019
</metadata>
<g transform="translate(0.000000,182.000000) scale(0.100000,-0.100000)"
fill="#000000" stroke="none">
<path d="M1245 1796 c-109 -26 -140 -50 -402 -310 -277 -274 -310 -318 -333
-446 -30 -163 41 -341 176 -444 l48 -37 83 83 c46 45 83 85 83 88 0 3 -15 12
-34 18 -40 15 -102 79 -122 128 -20 47 -17 131 5 179 23 50 473 499 516 515
48 18 138 14 182 -8 53 -27 119 -102 132 -148 28 -101 8 -157 -97 -266 l-83
-86 15 -60 c9 -33 16 -97 16 -143 l0 -84 140 140 c78 77 155 161 171 188 83
128 92 315 21 454 -33 64 -125 156 -190 191 -109 58 -219 74 -327 48z"/>
<path d="M1003 1169 c-46 -45 -83 -83 -83 -84 0 -2 10 -5 23 -9 35 -8 105 -74
129 -120 30 -56 30 -146 1 -201 -12 -22 -126 -144 -255 -271 -243 -240 -262
-254 -344 -254 -79 0 -175 63 -214 141 -22 42 -27 139 -10 184 6 15 48 66 94
114 l85 88 -16 44 c-8 24 -18 86 -22 137 l-6 94 -151 -154 c-167 -170 -198
-218 -217 -341 -35 -223 118 -455 338 -513 119 -32 262 -10 364 56 64 41 513
495 544 550 43 77 60 153 54 249 -5 97 -24 151 -77 231 -33 49 -129 140 -148
140 -4 0 -44 -37 -89 -81z"/>
</g>
</svg>
